<svg xmlns="http://www.w3.org/2000/svg" viewBox="0 0 495.94 608.56"><defs><style>.cls-1{fill:#fff;}.cls-2{fill:none;stroke:#000;stroke-linecap:round;stroke-linejoin:round;stroke-width:3px;}</style></defs><title>Asset 8</title><g id="Layer_2" data-name="Layer 2"><g id="Layer_2-2" data-name="Layer 2"><path d="M420.24,28.93c-4.39,3.86-6.89,9.38-8.22,15.08a83.13,83.13,0,0,0-2.11,15.71c-.15,3.86-.09,7.93-2,11.3-4.41,7.88-16,7.24-23.63,12-6.37,4-9.69,11.76-9.62,19.27s3.1,14.71,7.12,21c2.12,3.35,4.65,7,4.09,10.9s-3.79,6.55-6.72,9c-7.5,6.38-14.79,14.71-14.53,24.56.21,7.8,5.36,14.84,11.86,19.16s14.24,6.34,21.89,7.92c15.77,3.26,31.85,3,48,3.08,13,.1,45.43-3.25,49-24.15,2.45-14.21-3.61-25.1-11.61-32.1-3.7-3.23-13.34-9.61-14.71-14.33-1.11-3.8,1.29-7.66,3.7-10.79,3-4,6.28-7.8,8.22-12.38C486.2,92,479.19,76,466.62,71.52c-3.69-1.31-7.67-1.74-11.27-3.25s-.57-28.51-9.57-38.51C445.78,29.76,431.78,18.76,420.24,28.93Z"/><path d="M428.1,62.09c-3.52,57.61-4.85,115.31-6.15,173,0,1.93,3,1.93,3,0,1.3-57.68,2.63-115.38,6.15-173,.12-1.92-2.88-1.92-3,0Z"/><path class="cls-1" d="M428.1,62.09c-2.75,44.88-3.81,89.74-4.82,134.67,0,1.93,3,1.93,3,0,1-44.93,2.07-89.79,4.82-134.67.12-1.92-2.88-1.92-3,0Z"/><path class="cls-1" d="M404.13,106a110.78,110.78,0,0,1,10.55,8.92c3.45,3.12,7.16,6.25,10,9.93,1.19,1.52,3.3-.61,2.12-2.12-3.08-3.93-7.08-7.27-10.78-10.6a112.54,112.54,0,0,0-10.41-8.72c-1.59-1.1-3.09,1.5-1.52,2.59Z"/><path class="cls-1" d="M427.54,125.06c9.46-6.44,19.82-11.43,29.28-17.87,1.59-1.07.09-3.68-1.51-2.59C445.84,111,435.48,116,426,122.47c-1.59,1.08-.09,3.68,1.52,2.59Z"/><path class="cls-1" d="M424.18,167.32a105.52,105.52,0,0,1-26.64-12.85c-1.6-1.1-3.1,1.5-1.52,2.59a108.18,108.18,0,0,0,27.36,13.15c1.84.62,2.62-2.28.8-2.89Z"/><path class="cls-1" d="M426.14,170.93c12.72-3.83,25.38-7.79,38.25-11,1.88-.47,1.08-3.37-.79-2.9-12.88,3.23-25.54,7.19-38.25,11-1.85.56-1.06,3.46.79,2.9Z"/><path d="M270.6,451.72c-4.52,4.47-6,10.33-6.7,16.5-.45,3.84.35,9.26-2.62,12.2-2.48,2.48-7,2.88-10.12,4.09-11.59,4.42-11.75,17.68-6.54,27.2.8,1.45,2.49,3.14,2.82,4.73a8.5,8.5,0,0,1-3,8.25,38.27,38.27,0,0,0-6.73,7.31c-3.14,4.82-4,10.64-1.25,15.85,6.46,12.25,24.37,13.55,36.52,14.09,16.32.73,51,2.13,48.39-23.07a23.24,23.24,0,0,0-6.67-13.82,67.18,67.18,0,0,0-5.66-4.73,18.21,18.21,0,0,1-2.82-2.5c-2.8-3.57-1.36-6.09,1-9.27,3.35-4.46,6.15-8.71,5.77-14.5a18.41,18.41,0,0,0-6.46-12.75,19.13,19.13,0,0,0-7.75-3.6c-3.5-.93-4.07-.93-4.47-4.45-.6-5.35-.63-10.91-2.49-16-3.17-8.75-14-11-21.21-5.49-1.53,1.18.61,3.28,2.12,2.12,3.9-3,10.42-3.06,14.16.53,3.08,3,3.51,9.29,3.92,13.25.3,3,.11,6.46,1.05,9.33s3.48,2.94,6.12,3.64c6.07,1.61,10.64,5.6,11.82,12,1.49,8.09-4.52,11.58-7.61,18-3.93,8.2,6.26,12.12,10.81,17.05,4.4,4.77,6.73,11.87,4.95,18.29-1.42,5.13-5.85,8.19-10.57,10.06-7.94,3.15-16.43,3.23-24.83,3.16-7.53-.06-15.1-.19-22.53-1.51-7.27-1.3-16-3.32-20.25-10-4.49-7.09-.45-14.11,5-19.22,3.06-2.87,7.14-5.53,6.44-10.29-.42-3-2.59-5.38-4-7.91-2-3.64-3.46-7.83-3.07-12A12.44,12.44,0,0,1,250.57,488c2.54-1.3,5.42-1.73,8.06-2.74,4.08-1.54,6.8-4,7.61-8.37,1.5-8.16,0-16.57,6.48-23A1.5,1.5,0,0,0,270.6,451.72Z"/><path d="M276.13,473.94c-2.24,36.76-3.09,73.58-3.92,110.39,0,1.93,3,1.93,3,0,.83-36.81,1.68-73.63,3.92-110.39.12-1.93-2.88-1.92-3,0Z"/><path d="M261.1,502.41a69.46,69.46,0,0,1,6.63,5.61,53.9,53.9,0,0,1,6.4,6.33c1.19,1.52,3.3-.61,2.12-2.12a54.94,54.94,0,0,0-6.88-6.76,71.35,71.35,0,0,0-6.75-5.65c-1.59-1.1-3.09,1.5-1.52,2.59Z"/><path d="M276.59,514.59c6-4.1,12.64-7.3,18.68-11.4,1.59-1.08.09-3.68-1.51-2.59-6,4.1-12.64,7.3-18.69,11.4-1.59,1.08-.09,3.68,1.52,2.59Z"/><path d="M274.31,540.56a67,67,0,0,1-16.87-8.14c-1.59-1.09-3.1,1.5-1.51,2.59a69.91,69.91,0,0,0,17.59,8.45c1.83.61,2.62-2.28.79-2.9Z"/><path d="M275.57,543.91c8.11-2.44,16.19-5,24.41-7,1.87-.47,1.08-3.37-.8-2.9-8.22,2.07-16.3,4.59-24.41,7-1.84.56-1.06,3.45.8,2.89Z"/><path d="M132.55,142.31c5.11,6,7.3,13.77,12.42,19.75a30.9,30.9,0,0,0,15.74,10.07c7.41,1.84,17.52-.86,22.17,6.88,4.11,6.83,2.89,16.87,3.09,24.48.05,1.92,3.05,1.93,3,0-.35-13.14,1.15-31.18-15.94-33.1-4.33-.48-8.71-.22-12.92-1.54a28,28,0,0,1-11.53-7.29c-6-6.2-8.32-14.84-13.91-21.38-1.26-1.47-3.37.66-2.12,2.13Z"/><path d="M184.18,175.25c-3-14.74-6.52-30.11-16.08-42.13a41.86,41.86,0,0,0-15.65-12.42c-7.56-3.36-21.48-6.29-20-17.42.25-1.88-2.64-2.7-2.9-.79-2.25,16.77,20.7,18.34,30.11,26.2,13.9,11.62,18.21,30.42,21.61,47.35.38,1.9,3.27,1.1,2.89-.79Z"/><path d="M179.71,155.57c-.8-6.41-3.64-15,0-20.86,3.13-5,9.41-7.26,13.88-10.82,4.82-3.83,8-9.07,10.72-14.51s5.11-10.32,5-16.42c0-1.93-3-1.94-3,0,.16,7.09-3.69,14-7.28,20-3.9,6.46-9.15,9.81-15.19,13.93-3.64,2.49-7,5.46-8.22,9.84-1.68,6,.33,12.84,1.08,18.88.24,1.89,3.24,1.91,3,0Z"/><path d="M200.88,89.24c2.1,4,6.94,6.65,10.9,3.38a8.92,8.92,0,0,0,2.06-10.5c-1.82-3.32-7-3.63-9.94-1.73-2.52,1.64-4.35,5.55-3.18,8.49.71,1.77,3.61,1,2.9-.8a4.6,4.6,0,0,1,1-4.35c1.35-1.62,4.95-2.29,6.42-.45,1.16,1.46.74,4.43-.15,5.85-2.21,3.54-5.87,1.51-7.41-1.41C202.56,86,200,87.53,200.88,89.24Z"/><path d="M126.86,133.49a6,6,0,0,0,1.7,6.81c2.32,1.88,6.11,1.06,8-1.27C140.78,133.76,130.78,124.76,126.86,133.49Z"/><path d="M125.41,133.09c-1.62,4.22,1.14,9.46,5.84,9.73,3.8.23,7.84-2.67,7.82-6.69a8.28,8.28,0,0,0-5.24-7.33c-3.58-1.38-6.71.7-8.27,3.93-.83,1.73,1.75,3.26,2.59,1.52s2.35-3.5,4.57-2.67A5.46,5.46,0,0,1,136,135.2c.54,2.19-1,4-3.14,4.49-3.52.88-5.69-2.72-4.51-5.8C129,132.08,126.1,131.3,125.41,133.09Z"/><path d="M125.53,96.41c.42,4.36,3.65,7.88,8.31,6.63A7.76,7.76,0,0,0,139,92.82a6.86,6.86,0,0,0-8.89-3.67,7.39,7.39,0,0,0-4.59,7.26c0,1.93,3,1.93,3,0,0-3.35,3.2-6.27,6.39-4.1,2.56,1.74,1.86,5.75-.55,7.26-2.84,1.8-5.54,0-5.84-3.16C128.35,94.5,125.35,94.48,125.53,96.41Z"/><path d="M381.09,350.39a176.89,176.89,0,0,0-11.56-19.26c-4-5.5-9.78-9.65-13.4-15.3-8.59-13.39-2.48-32.24,3-45.56.73-1.78-2.17-2.56-2.89-.79-5.52,13.41-10.72,30.58-4.37,44.69,2.8,6.21,8.4,10,12.6,15.21,5.59,6.87,9.82,14.77,14,22.52.92,1.7,3.51.19,2.59-1.51Z"/><path d="M370.07,332c-3.08-4-11.8-7.17-16.76-6.2-5.29,1-8.22,6.15-14.21,5.72-3.94-.29-7.88-5.59-11.7-3.18-1.63,1-.13,3.62,1.51,2.59,1.14-.72,7,3.1,8.74,3.4a14.8,14.8,0,0,0,10-2c3.81-2.17,6-4.18,10.49-3.12,2.86.68,7.44,1.8,9.34,4.27,1.17,1.51,3.77,0,2.59-1.51Z"/><path d="M354.07,311c-5-10.47-28.09-7.29-22.95-23,.6-1.84-2.3-2.63-2.9-.8A13,13,0,0,0,332.68,302c5.68,4.19,15.44,3.5,18.8,10.54.84,1.74,3.42.22,2.59-1.51Z"/><path d="M353.84,310.7q-.49,1.88,2-.16a10.37,10.37,0,0,1,3.85-.89c2-.08,4,.56,6,.57a20,20,0,0,0,8.2-1.76,19.29,19.29,0,0,0,11.28-13.63c.4-1.88-2.49-2.69-2.9-.8-1.87,8.71-10.06,13.9-18.74,13-3.23-.32-11.7-.78-12.85,3.69a1.51,1.51,0,0,0,.39,1.46l.64.62c1.39,1.35,3.51-.77,2.12-2.12Z"/><path d="M352,286.71c-5.74-1.53-5.15-8.56-4.65-13.14.21-1.91-2.79-1.9-3,0-.66,6.12-.35,14.11,6.85,16a1.5,1.5,0,0,0,.8-2.89Z"/><path d="M352.84,291.82c3.3-3.65,8.1.43,11.74,1.24a12.82,12.82,0,0,0,8.45-.87,9.75,9.75,0,0,0,4.91-12.11c-.64-1.8-3.54-1-2.89.8,1.72,4.86-2.06,9.3-7,9.52-3.37.15-5.91-1.75-9-2.6-2.93-.8-6.2-.43-8.31,1.9-1.29,1.43.82,3.56,2.12,2.12Z"/><path d="M239.16,228.43c5.41-3.05,4.8-11.22.41-15.17-2.23-2-5.36-2.84-8.22-3.45-4.84-1-10.14-2.07-15.11-1.89-5.8.22-11.69,2.65-13.75,8.48-1.15,3.25-1.3,8.37,1.84,10.62,1.57,1.12,3.07-1.48,1.51-2.59-1.84-1.32-1.1-5.55-.46-7.24,1.81-4.72,6.86-6.18,11.5-6.27a51.05,51.05,0,0,1,17.5,2.81c4.23,1.57,8.82,9,3.27,12.11a1.5,1.5,0,0,0,1.51,2.59Z"/><path d="M235.54,245.06c3.62-2.16,6.7-4.13,6.9-8.72a10.4,10.4,0,0,0-5.91-10.05c-7.05-3.54-16.13-3.52-23.89-2.92-6.56.5-13.89,4-15.57,10.94C195.56,240.55,200.18,245,206,246c1.89.3,2.7-2.59.8-2.9-4.69-.76-8.41-4-6.52-9,2.05-5.47,8.39-7.47,13.67-7.72,2.92-.14,5.9-.12,8.82,0,4.17.13,9.78.74,13.34,3.21a7.46,7.46,0,0,1,3.32,6.87c-.37,3.59-2.82,4.58-5.42,6.13a1.5,1.5,0,0,0,1.52,2.59Z"/><path d="M240.07,260.52c4.46-6.64,4.28-13.59-3.66-17-6-2.6-13.22-2.88-19.68-2.24-6,.59-12.68,1.92-17.35,6.11-7.76,7-4.09,18.08,6.4,18.88,1.92.15,1.92-2.85,0-3-6.88-.52-9.91-7.31-5.55-12.49,2.07-2.45,5.18-3.9,8.17-4.88a46,46,0,0,1,24.53-.45c2.44.73,5.42,1.86,6.73,4.23,1.74,3.15-.41,6.71-2.18,9.34-1.08,1.6,1.52,3.11,2.59,1.51Z"/><path d="M219.26,278.32c7.06-.14,14.87-.71,21.57-3.15,4.18-1.52,6-4.49,5.36-9-.88-6.35-6.12-7.53-11.67-7.58-6.31-.05-13,.06-19.17,1.53-10.21,2.44-15.74,9.06-13.11,19.53,1.41,5.63,8,8.66,13.18,10.13,7.93,2.25,16,.6,24,1.52,8.46,1,13.41,10,17.54,16.42,2.53,4,4.65,9.74,8,13.07a1.5,1.5,0,0,0,2.12-2.12c-1.43-1.42-3.24-5.5-4.58-7.71a150.46,150.46,0,0,0-8.86-13.34c-2.74-3.57-5.82-6.8-10.14-8.44-5.25-2-11.41-.71-16.9-.93-6.54-.27-14.78-1.29-19.66-6.26-2.32-2.36-2.89-7.26-2.19-10.48,2.26-10.42,19.61-9.8,27.76-9.91,3.92-.05,9.16-.57,10.56,4,.94,3.09-.11,5.55-3,6.67-6.38,2.47-14,2.91-20.77,3-1.93,0-1.94,3,0,3Z"/><path d="M241.23,213.16c3-7.53,2.18-15.35,4.08-23.09,1.31-5.28,3.93-13.22,9.72-15,3.26-1,7.32-.85,9,2.38,1.48,2.85,1.36,6.8,1.38,9.93,0,6.86-1.73,14.1-1.07,20.89.54,5.66,4.69,10.8,7.25,15.67,3.56,6.78,5.62,14.57,7,22.08,1,5.37.75,10.92,1.75,16.25.6,3.18,2.35,6.27,3.78,9.15,5.64,11.42,12.22,22.39,17.35,34.06.78,1.76,3.36.24,2.59-1.51-5.13-11.67-11.71-22.65-17.35-34.07a32.36,32.36,0,0,1-3.8-13.09,105.33,105.33,0,0,0-3.14-19.09c-2.16-8-5.37-14.78-9.36-22-1.94-3.52-3.27-6.59-3-10.66.28-4.38.73-8.76.9-13.15.21-5.28.87-12.72-2.42-17.33-2.63-3.68-8.3-3.5-12.18-2.22-5.38,1.78-7.61,7-9.54,11.83-3.61,9.1-2.18,19.07-5.84,28.14-.72,1.79,2.18,2.57,2.9.8Z"/><path d="M3.93,528.41c-4.46-22.18,14.29-40.18,24.16-58a183.9,183.9,0,0,0,20.14-56.23c.33-1.89-2.56-2.7-2.9-.8a179.65,179.65,0,0,1-23.26,61.43C11.88,491.53-3.21,508.07,1,529.21c.38,1.89,3.27,1.09,2.89-.8Z"/><path d="M46.38,412.32C38.93,414,31.63,417.43,25,421.1,16.82,425.59,8.11,431.53,3.72,440S-.51,458.9.86,468.15c1.32,8.94,3.85,18.51,8.84,26.16a1.55,1.55,0,0,0,1.7.69c7.27-2.31,14.83-3.82,21.68-7.33a40.61,40.61,0,0,0,18-19.09,56.61,56.61,0,0,0,5.08-34.2c-1.37-7.73-5-13.92-7.93-21-.73-1.76-3.63-1-2.9.8,2.38,5.8,5.53,11,7.1,17.19,3.07,12,1.35,24.58-3.94,35.72a38,38,0,0,1-17.81,18.45C24.3,488.6,17.31,490,10.6,492.11l1.69.69c-4.49-6.89-6.83-15.37-8.21-23.4C2.46,460,2,449.06,6.87,440.51c4.48-7.87,13-13.26,20.73-17.43a81.58,81.58,0,0,1,19.58-7.87c1.88-.43,1.08-3.33-.8-2.89Z"/><path d="M46.78,413.76c1.44,3.84,13.5,20.85,6.63,44.42C44.78,487.76,25.78,488.76,11,493.55c0,0,14-22.48,22.28-40.29,14-30,13-40,13-40"/><path d="M308.51,131.81c-2.61,7.15-1.68,14.42-.29,21.73,1.66,8.78,3.73,17.5,6.09,26.12a358.45,358.45,0,0,0,17.13,48.26c.77,1.76,3.35.24,2.59-1.51a352,352,0,0,1-16.33-45.77q-3.12-11.13-5.49-22.45c-1.77-8.46-3.87-17.18-.81-25.59.66-1.81-2.23-2.6-2.89-.79Z"/><path d="M308,128.9a50.17,50.17,0,0,0-17.53,52.53c2.27,8.28,6.56,16.51,14,21.21,6,3.78,12.79,7.47,19.58,9.48,1.86.55,2.65-2.35.8-2.9-5.83-1.72-11.48-4.87-16.73-7.9-7.89-4.54-12.33-12-14.72-20.68-5.1-18.52,1.84-37.84,16.76-49.61,1.52-1.2-.62-3.31-2.12-2.13Z"/><path d="M308.32,130.73c5.76,4.85,10.92,10.37,16.46,15.47,6.1,5.6,10.88,11.38,12.7,19.66,3.47,15.79-2.61,31.83-11.84,44.51-1.14,1.56,1.47,3.06,2.59,1.51,9.41-12.93,15.42-29.14,12.46-45.26a35.79,35.79,0,0,0-10.31-19.24c-6.35-6.43-13-13-19.94-18.77-1.47-1.23-3.6.88-2.12,2.12Z"/><path d="M321.37,196.9c-1.23-.9-3.87-.05-5.17.14-3.68.56-7.34,1.19-11.06,1.39-1.92.1-1.93,3.1,0,3,2.92-.16,5.81-.56,8.7-1,1.28-.2,2.56-.41,3.85-.6.53-.08,1.06-.17,1.6-.21.28,0,.95.15.56-.13,1.56,1.13,3.06-1.47,1.52-2.59Z"/><path d="M320.82,191.9c6.34-2.11,12.5-4.7,18.84-6.81,1.82-.61,1-3.5-.8-2.89-6.34,2.11-12.5,4.69-18.84,6.8-1.82.61-1,3.51.8,2.9Z"/><path d="M314.17,174c8.44-.79,16-3.81,24.09-6.12a1.5,1.5,0,0,0-.8-2.89c-7.81,2.23-15.14,5.24-23.29,6-1.91.17-1.92,3.17,0,3Z"/><path d="M311.24,164.33a102.57,102.57,0,0,1-21-.39c-1.91-.23-1.89,2.78,0,3a102.57,102.57,0,0,0,21,.39c1.91-.16,1.93-3.16,0-3Z"/><path d="M307.64,144.61c-4.07-.71-7.86.08-11.88.72-1.91.3-1.1,3.2.79,2.89,3.44-.55,6.8-1.33,10.29-.72,1.89.33,2.7-2.57.8-2.89Z"/><path d="M60,122.94a27.05,27.05,0,0,1,13,2.72,17.43,17.43,0,0,1,5.42,4.42c1.12,1.37,3.94,5.08,3.36,6.77-.68,2-5.36,3.93-7.11,4.7a33.81,33.81,0,0,1-7.16,2.24,38.48,38.48,0,0,1-17.34-.52c-4.13-1.12-10.7-4.1-12.11-8.62-.4-1.29.2-1.79,1.36-3.09,5.22-5.89,13-8.23,20.6-8.62,1.92-.1,1.93-3.1,0-3-9,.46-18.79,3.55-24.18,11.29-1.92,2.77-.33,5.16,1.73,7.74,3.73,4.68,9.36,6.91,15.11,7.91a41.52,41.52,0,0,0,20.1-1.38c3.42-1.13,11.88-4.27,12.06-8.69.18-4.65-4.63-10-8.17-12.42C71.79,121,65.83,119.88,60,119.94,58.07,120,58.07,123,60,122.94Z"/><path d="M48.93,143.08c4.59-8.18,18.21-7.67,22.35.75.85,1.74,3.44.22,2.59-1.51-5.14-10.44-21.89-10.82-27.53-.76-.94,1.69,1.65,3.2,2.59,1.52Z"/><path d="M42.45,139.28c2.8-8,11.53-10.19,19.22-9.75S75,133.9,77.46,141.2c.61,1.82,3.51,1,2.89-.79-2.91-8.57-9.67-13.39-18.68-13.88-9.18-.5-18.85,2.66-22.11,11.95-.65,1.83,2.25,2.61,2.89.8Z"/><path d="M34.28,133.05c-1.64,4.92-2.46,10.19-.88,15.25.57,1.83,3.47,1,2.89-.8-1.42-4.57-.6-9.21.89-13.66.61-1.83-2.29-2.62-2.9-.79Z"/><path d="M61.12,180.35c4-9.7,2.1-18.69-6.39-25a43.61,43.61,0,0,0-11.39-5.61C36.77,147.35,29,146.17,27,138.3a1.51,1.51,0,0,0-2.74-.36c-2.73,5.19-2.35,12.47-1.58,18.11.95,6.95,3.57,14.08,8.8,18.95,5,4.67,11.87,6.39,18.55,6.87,2.24.16,11.84,1.29,11.82-2.63,0-1.8-2.34-1.89-2.95-.4l-.13.32c-.73,1.78,2.17,2.56,2.9.8l.12-.32-2.94-.4c0-1-3.82-.28-4.92-.26a42.77,42.77,0,0,1-8.38-.68c-6-1.1-11.28-3.68-14.84-8.73a32.32,32.32,0,0,1-5.23-15.14c-.48-4.6-.84-10.79,1.37-15l-2.74-.36C27,150.27,39.5,150.78,48.35,155a26,26,0,0,1,8.36,6.15c4.73,5.44,4.13,12.11,1.51,18.43-.73,1.78,2.17,2.55,2.9.79Z"/><path d="M81.54,135.29a29.27,29.27,0,0,1,2,13.85c-.16,1.93,2.84,1.92,3,0a31.33,31.33,0,0,0-2.15-14.65c-.73-1.76-3.63-1-2.9.8Z"/><path d="M60.5,162.42c4.49-7.14,13.55-6.66,20.7-9.49,4.16-1.65,13.92-4.76,14.67-10H93c2.77,10,.88,22.45-7.16,29.62a27.11,27.11,0,0,1-13.95,6.27,38.32,38.32,0,0,1-6.94.36c-1.05,0-4.11-.52-3.66.17-1.05-1.61-3.65-.1-2.59,1.52,1.5,2.27,8.25,1.4,10.5,1.25a31.71,31.71,0,0,0,17.07-6.05c10.11-7.68,12.89-22.15,9.62-33.94-.36-1.32-2.67-1.53-2.89,0-.44,3.05-6,4.76-8.4,5.94a61.08,61.08,0,0,1-13,4.59c-5.85,1.36-10.33,3-13.65,8.25-1,1.64,1.57,3.14,2.59,1.51Z"/><path d="M60.36,180.13a1.5,1.5,0,0,0,0-3,1.5,1.5,0,0,0,0,3Z"/><path d="M282.34,412.25c5.5-1.85,11.88.44,11.89,7,0,4.13-2.34,7.81-6.66,8-3.4.11-7.47-1.53-8.75-4.9-1.57-4.1-.63-8.43,3.52-10.08,1.77-.71,1-3.61-.8-2.89-5.78,2.29-7.63,7.86-5.62,13.76,1.75,5.13,7.83,7.64,12.91,7,5.95-.75,9.06-6.85,8.27-12.47-1.07-7.61-8.8-10.57-15.56-8.29C279.72,410,280.5,412.87,282.34,412.25Z"/><path d="M295.13,415.13c9.58-7.84,20.78-13.39,31.14-20.09,1.61-1,.11-3.64-1.52-2.59C314.17,399.29,302.8,405,293,413c-1.5,1.22.64,3.33,2.12,2.12Z"/><path d="M329.14,382c3.94.3,8.14,2.26,9.14,8.26,1.52,9.1-7.29,12.73-11.34,12.12C309.78,399.76,321,381.38,329.14,382Z"/><path d="M329.14,383.5c6.81.73,10.56,9,5.69,14.31a9.87,9.87,0,0,1-12.7,1.37c-6.52-4.44.36-15.86,7-15.68,1.93.06,1.93-2.94,0-3-11.26-.3-18.13,18.11-6,22.49,6,2.17,13.3-.12,15.91-6.33,3.24-7.73-2.1-15.32-9.95-16.16C327.22,380.3,327.23,383.3,329.14,383.5Z"/><path class="cls-1" d="M325,392.47l-7,4a1.5,1.5,0,0,0,1.52,2.59l7-4a1.5,1.5,0,0,0-1.52-2.59Z"/><path d="M329.53,400.38c-.39,10.79-.5,21.6-.25,32.38,0,1.93,3,1.94,3,0-.25-10.78-.14-21.59.25-32.38.07-1.93-2.93-1.92-3,0Z"/><path d="M321.44,427.52c-5.07,4.7-3.58,12.57,1.94,16.26s13,1.7,16.62-3.83c3.78-5.78,2.24-12.69-4.56-14.91-4.47-1.47-9.79-.22-13.7,2.25-1.63,1-.12,3.63,1.51,2.59,4.85-3.07,16.32-4.46,15.72,4.23-.35,5-5.39,9.33-10.38,8.54-5.94-.95-10-8.38-5-13C325,428.33,322.85,426.21,321.44,427.52Z"/><path d="M319.06,430.49c-10.42-2.33-20.68-5.21-30.4-9.68-1.74-.8-3.27,1.78-1.52,2.59a155.1,155.1,0,0,0,31.12,10c1.88.42,2.69-2.48.8-2.9Z"/><path d="M400.62,437.06C401.14,429,409,423,412.2,416l-2.36.31c6,6.9,11.91,13.89,14.49,22.86a1.51,1.51,0,0,0,2.9-.8c-2.73-9.45-8.91-16.9-15.27-24.19a1.5,1.5,0,0,0-2.35.31c-3.52,7.69-11.42,13.68-12,22.58-.12,1.92,2.88,1.92,3,0Z"/><path d="M413.63,435.12A136.32,136.32,0,0,1,412,417.77l-2.95.4.63,1.84c.62,1.82,3.51,1,2.89-.8l-.62-1.84c-.52-1.54-3-1.37-2.95.4a143.47,143.47,0,0,0,1.74,18.15c.3,1.9,3.19,1.09,2.89-.8Z"/><path d="M403.18,424c-2.05-2.42-1.61-5.26-1.87-8.16a1.51,1.51,0,0,0-2.25-1.29c-2.91,1.71-5.52,3.88-8.3,5.79-3.11,2.13-6.33,2.93-9.63,4.53-5.41,2.61-8.66,8-9.35,13.9-1,8.07,3.16,14.43,10.49,17.67,6,2.64,12.73,3.45,19.21,3.86,8.89.57,18.13.92,27-.17,5.49-.68,11.36-1.95,15.76-5.51s5.48-8.39,5.91-13.72c.5-6.26-.85-11.87-5.65-16.17a23.59,23.59,0,0,0-9.21-5.44c-4.37-1.22-10.4-.43-13.38-4.53-.69-.95-2.45-1-2.74.36a33.2,33.2,0,0,0-.31,12.21c.3,1.9,3.19,1.09,2.89-.8a28.9,28.9,0,0,1,.31-10.61l-2.74.36c3.13,4.3,7.81,4.49,12.69,5.38,5.65,1,11.88,4.78,14.19,10.29,2,4.77,1.59,12.46-.94,17s-8,6.5-12.84,7.54c-6.73,1.44-13.72,1.35-20.57,1.17-7.4-.2-14.85-.22-22.1-1.91s-14.68-5.38-15.1-13.73c-.38-7.65,3.88-13,10.88-15.49,5.68-2,9.93-6.35,15.05-9.36l-2.26-1.3c.36,4.05,0,7,2.75,10.28,1.25,1.47,3.36-.66,2.12-2.12Z"/><path d="M357.35,42.07c-4.83,2.25-10.2,6.62-9.62,12.56.44,4.58,4.93,7.63,9.31,7.63,11.18,0,9.59-16.76-.63-17.23-1.93-.09-1.93,2.91,0,3,7.39.34,7.29,13-.93,11-3.24-.76-5.48-3.51-4.55-6.9,1-3.68,4.69-6,7.94-7.52,1.74-.82.22-3.41-1.52-2.59Z"/><path d="M123.34,338.82c.71-13.05,9-24.26,16.34-35.05s14.46-23.26,12.4-36.17c-.45-2.82-1.34-5.68-.75-8.48.46-2.15,1.76-4.06,2.19-6.22a16.12,16.12,0,0,0-.09-5.23L150,220.89c-6.63,5.06-4.58,15.34-7.37,23.21-1.35,3.79-2.15,9.87-5.83,19.83-1.58,4.27-5.59,8-5.54,13.53.11,11.52-4.52,10.19-4.25,10.06-4.7-10.32.47-16.51,2.95-21.27,3.44-6.62-3.77-15.17-.68-22,1.14-2.51,3-5,2.48-7.72-.58-2.95-3.83-4.82-4.35-7.78-.71-4,3.74-6.95,4.81-10.84,1.2-4.38-2-8.59-4.64-12.29a63.11,63.11,0,0,1-11-27.85c-5.77,5-3.82,14.13-5.4,21.58-1.64,7.71-7.48,14.17-8.42,22-.71,6,1.52,12.12,0,17.94-1.6,6.3-7.39,11.55-6.76,18,.81,8.16,11.43,12.77,12,21,.16,2.13-.93,4.73-3.06,4.86a4.66,4.66,0,0,1-2.12-.51,26.88,26.88,0,0,1-12.55-11.15C88.19,267.83,87,263.72,85,260a33.11,33.11,0,0,0-20.3-16.37,59,59,0,0,0,12.77,34.51c1.68,2.1,3.53,4.12,4.62,6.58,1,2.2,1.31,4.66,2.4,6.81,2.23,4.41,7.11,6.65,11,9.7s6.72,6.82,9.62,10.64c6.59,8.69,11.55,17.95,18.15,26.63"/><path d="M124.84,338.82c1.68-21.34,20.84-35.47,27.17-55.14a36.13,36.13,0,0,0,1.85-13.56c-.16-2.15-.68-4.19-1-6.32-.51-3.83.91-6.18,1.84-9.71,1.24-4.72-.31-10.29-.92-15l-2.33-18.17a1.53,1.53,0,0,0-2.56-1.07c-4.11,3.55-5.16,8.45-5.85,13.63a147.33,147.33,0,0,1-3.65,16.67,90.9,90.9,0,0,1-7.64,19.93,17.38,17.38,0,0,0-2,6.67,39.43,39.43,0,0,1-.46,6c-.24,1-1.19,2.15-1.35,3,0,.13-.53.31-.53.32,0,.28,1,1.06,1,1.4-.09-1.46-1.14-3-1.46-4.46a16.65,16.65,0,0,1,1.54-11.21c2.24-4.57,4.39-7.56,3.51-12.91-.53-3.21-1.88-6.36-2.06-9.62-.24-4.21,2.86-7,3.25-11,.23-2.36-.73-4.07-2-5.93-1.54-2.21-2.62-4.11-1.7-6.77.63-1.84,2.27-3.38,3.16-5.09,3.35-6.44-1.34-11.86-4.8-17.06A63.93,63.93,0,0,1,118,177.4a1.52,1.52,0,0,0-2.51-.66c-4.37,4.27-4.69,10-5.07,15.77a35,35,0,0,1-2.6,12.06c-1.53,3.52-3.53,6.81-4.91,10.39a25.82,25.82,0,0,0-1.8,10c.08,4.64,1.35,9.33.22,13.94-1.57,6.41-7.39,11.41-6.81,18.42.45,5.3,4.51,9.07,7.74,12.9,1.55,1.84,6.1,7.15,4.09,9.83-3,4-10.47-3.66-12.29-5.84-5.36-6.41-6.62-15.07-12.17-21.45A35.6,35.6,0,0,0,65.1,242.16a1.5,1.5,0,0,0-1.89,1.45A61.93,61.93,0,0,0,70,269.34a71.45,71.45,0,0,0,7.44,11.1,23.67,23.67,0,0,1,4.37,8.08,19.12,19.12,0,0,0,2.14,5c1.91,2.91,4.93,4.85,7.74,6.79A51.27,51.27,0,0,1,103.33,312c6.69,8.76,12,18.44,18.63,27.27,1.14,1.53,3.75,0,2.59-1.51-6.07-8.14-11.06-17-17.06-25.19a83.67,83.67,0,0,0-8-9.73c-3.11-3.11-7-5.07-10.25-7.92-3.62-3.15-4-6.86-5.87-10.95s-5.49-7.41-8-11.2a58.51,58.51,0,0,1-9.24-29.13l-1.9,1.44a32.4,32.4,0,0,1,20.2,17.31c3.35,7,5.7,13.66,12.23,18.47,3.36,2.48,9.38,6.32,12.07,1,2.38-4.66-1.17-9.83-4-13.29-2.07-2.48-4.57-4.77-6.06-7.67-2.4-4.68-.48-8.88,1.83-13.13,1.72-3.16,3.47-6.21,4-9.81.62-4-.21-8.06-.4-12.09-.46-9.37,5.65-16,8-24.58,2-7.28-.46-16.71,5.4-22.44l-2.5-.66c1.75,11.65,6.54,21,13,30.75,2.19,3.31,3.83,6.9,1.73,10.71-.95,1.73-2.34,3.19-3.14,5-1.8,4.1.16,6,2.11,9.44,2.3,4,.1,6.59-1.16,10.38a13.07,13.07,0,0,0-.5,5.49c.49,5.13,3.66,10.4,1.55,15.51-1.26,3.08-3.37,5.66-4.32,8.91a18.36,18.36,0,0,0-.69,6.12,20.3,20.3,0,0,0,.33,2.57c.24,1.27,1.63,3.41,1.53,4.46a1.46,1.46,0,0,0,.74,1.3c2,1,4-.77,5-2.43,1.37-2.43,1.35-5.42,1.52-8.11.31-5.12,2.89-8.2,4.93-12.65,3-6.59,4.19-13.88,6.27-20.79,2.21-7.35.87-17.54,7.11-22.92l-2.56-1.06,2.21,17.21c.76,5.91,2.29,11.78.29,17.52-1.75,5-.72,8.46-.19,13.66.6,6-.81,11.91-3.1,17.4-7.55,18.07-24.25,31.69-25.86,52.14-.15,1.93,2.85,1.92,3,0Z"/><path d="M466.31,370.75c1.54-18.41,18.42-30.29,23.2-47.57a29.75,29.75,0,0,0,.9-12.16,31,31,0,0,1-.79-5.35c.1-2.47,1.47-4.25,1.95-6.58.79-3.88-.5-8.41-1-12.27l-1.92-15a1.52,1.52,0,0,0-2.56-1.06c-4.81,4.24-4.57,10.41-5.61,16.25a124.32,124.32,0,0,1-4.67,17.13c-1.26,3.78-3.52,6.85-4.93,10.52-1.22,3.15-.36,6.5-1.45,9.61a21.29,21.29,0,0,1-1.07,2c1.23,1.52,1.32,1.28.27-.7a14.67,14.67,0,0,1-.85-4.15c-.15-3.66,1.55-6.5,3.17-9.61,3-5.69.31-9.87-.22-15.79-.33-3.82,2.47-6.18,2.67-9.76s-2.8-5.22-3-8.48c-.22-3.75,3.24-5.85,3.5-9.65.2-2.91-1.27-5.48-2.82-7.83-5.22-7.9-9.08-15.58-10.54-25.06a1.51,1.51,0,0,0-2.5-.66c-3.53,3.54-4,8.08-4.3,12.85-.46,7.13-3.36,12.14-6,18.56-2.57,6.23-1,11.52-1.26,17.95s-6.18,11.14-6.1,17.67c.06,4.55,3.2,7.79,6,11,1.17,1.37,8,9.29.73,9-2.74-.11-6.48-4.84-7.93-7-3.46-5.16-4.67-11.32-8.79-16.13A30.27,30.27,0,0,0,416,289.45a1.52,1.52,0,0,0-1.9,1.45,53.06,53.06,0,0,0,5.56,21.38,63.31,63.31,0,0,0,6.66,9.93c2.58,3.34,3,7.39,5.28,10.78a20.89,20.89,0,0,0,5.64,5.08,47.56,47.56,0,0,1,10.94,10.81c5.42,7.21,9.84,15.1,15.22,22.34,1.14,1.53,3.75,0,2.59-1.52-5-6.75-9.18-14.08-14.13-20.87a64.66,64.66,0,0,0-14.26-14.15c-3.81-2.86-4.2-6.06-6.12-10.08-1.68-3.53-4.66-6.27-6.76-9.54a49.18,49.18,0,0,1-7.62-24.16l-1.9,1.44A27.08,27.08,0,0,1,432.14,307c2.71,5.74,4.63,11,9.83,15,2.68,2.06,7.65,5.51,10.45,1.84,2.67-3.49,0-8.32-2.21-11.19-1.72-2.21-4-4.15-5.39-6.59-2.44-4.19-.93-7.88,1.23-11.84,3.4-6.23,3.34-10.76,2.93-17.77-.44-7.71,4.15-13.11,6.43-20.06,2.06-6.29-.25-14.61,4.76-19.63l-2.51-.66a55.92,55.92,0,0,0,6.67,19.44c2.11,3.68,5.16,6.73,6,10.95s-2.13,5.49-3.3,9.2a6.33,6.33,0,0,0,.61,5.23c1,1.76,1.88,2.29,2.2,4.44.37,2.52-.7,3.46-1.5,5.69-1.93,5.43,1.58,10,1.32,15.32-.23,4.84-4.56,8.66-4.85,13.76-.12,2.27.12,8.36,2.93,9.12,2,.54,3.58-1.59,4.25-3.14a18.19,18.19,0,0,0,.95-6c.32-4.35,2.48-7,4.2-10.84,2.43-5.37,3.38-11.26,5.05-16.87,1.87-6.25.84-14.93,6-19.52l-2.56-1.06,1.92,15c.62,4.88,1.72,9.33.18,14.08a16.56,16.56,0,0,0-.62,8.74,30.13,30.13,0,0,1-1.6,16c-6,15.93-20.75,27.36-22.23,45.11-.16,1.92,2.84,1.91,3,0Z"/><path d="M33.93,349c-7.14-6.41-1.85-17.9,4.9-21.92,8.74-5.22,22.12.63,22.72,11.41.11,1.92,3.11,1.93,3,0-.66-11.85-15.1-20.25-25.74-14.89-4.88,2.45-9.37,6.72-10.41,12.25-1,5.25-.79,11.49,3.41,15.27,1.43,1.29,3.56-.82,2.12-2.12Z"/><path d="M55,344.71c7.27-10.95,20.14-1.13,23.38,7.69,1.51,4.09,4.49,15.62-.14,18.62-2.54,1.65-7.71,1.23-10.59,1.39-5.2.28-10.42.34-15.64.35-9.56,0-19.13-.22-28.69-.43a17.6,17.6,0,0,1-3.25-.07c-3-.71-6.29-4.69-7.13-7.66-2.87-10.23,6.75-19.78,16.32-20.17,1.92-.08,1.93-3.08,0-3C16.1,342,3.42,357.77,12.51,369.88c2.62,3.49,5.18,5.33,9.45,5.42s8.83.21,13.25.29c11.89.23,23.91.57,35.78-.4,2.69-.22,6.77-.15,9.1-1.76,4-2.79,3.48-10.3,2.92-14.42-1.09-7.92-4.7-16.4-12.17-20.25a14.23,14.23,0,0,0-18.46,4.43c-1.07,1.62,1.53,3.12,2.59,1.52Z"/><path d="M235,18.43c-.77,4.32.88,9.8,3.35,13.41,3.26,4.76,2.24,7.32-.8,11.94-1.91,2.92-4,5.75-5.38,9-2.51,6.09-1,11.26,2.9,16.32,2.1,2.76,4.51,5.32,5.81,8.57,1.56,3.88,1.18,8,.44,12-1.82,10-6.75,24.09,5.35,29.8s23.37-3.81,30.08-13.07c5.11-7.06,9.24-15.33,16.63-20.36,5.48-3.73,12.38-5.57,16.12-11.44,2.91-4.55,2.23-9.39-.61-13.76-4.1-6.3-10.75-11.1-4.23-18.55,4.58-5.24,7.16-9.93,6.55-17.12a24.06,24.06,0,0,0-10.6-17.73c-11.33-7.87-28-8.71-41.09-6.26C250,3,237.75,8,235,18.43a1.5,1.5,0,0,0,2.89.8c2.46-9.34,14-13.54,22.42-15.12C272,1.94,286.46,2.66,297,8.72c6.22,3.58,10.69,9.56,11.26,16.82a19.56,19.56,0,0,1-.8,7.49c-1.22,3.82-4.32,6-6.59,9.16-6.45,9,3.1,14.63,6.63,22.22,4,8.58-5.3,13.34-11.48,16.67a39.87,39.87,0,0,0-12.66,10.65c-8,10.18-15.78,28.88-31.81,26.17-15.69-2.66-8-20.49-6.82-30.48a21,21,0,0,0-4-15.91c-1.67-2.29-3.66-4.35-5.1-6.79-2.75-4.66-1.85-9,.66-13.52,2.64-4.73,8.21-9.83,7.39-15.75-.36-2.58-2.09-3.87-3.36-5.94-1.51-2.45-2.95-7.48-2.45-10.28C238.24,17.34,235.35,16.53,235,18.43Z"/><path d="M281,22.26a1.5,1.5,0,0,0,0-3,1.5,1.5,0,0,0,0,3Z"/><path d="M270.38,8.93a1.5,1.5,0,0,0,0-3,1.5,1.5,0,0,0,0,3Z"/><path d="M275.71,30.6a1.5,1.5,0,0,0,0-3,1.5,1.5,0,0,0,0,3Z"/><path d="M267.71,50.6a1.5,1.5,0,0,0,0-3,1.5,1.5,0,0,0,0,3Z"/><path d="M281.71,45.6a1.5,1.5,0,0,0,0-3,1.5,1.5,0,0,0,0,3Z"/><path d="M287.71,75.93a1.5,1.5,0,0,0,0-3,1.5,1.5,0,0,0,0,3Z"/><path d="M259.71,66.93a1.5,1.5,0,0,0,0-3,1.5,1.5,0,0,0,0,3Z"/><path d="M259.38,97.93a1.5,1.5,0,0,0,0-3,1.5,1.5,0,0,0,0,3Z"/><path d="M248.38,109.6a1.5,1.5,0,0,0,0-3,1.5,1.5,0,0,0,0,3Z"/><path d="M249,98.26a1.5,1.5,0,0,0,0-3,1.5,1.5,0,0,0,0,3Z"/><path d="M267.71,102.26a1.5,1.5,0,0,0,0-3,1.5,1.5,0,0,0,0,3Z"/><path d="M280.38,89.6a1.5,1.5,0,0,0,0-3,1.5,1.5,0,0,0,0,3Z"/><path d="M262,109.6a1.5,1.5,0,0,0,0-3,1.5,1.5,0,0,0,0,3Z"/><path d="M261.71,84.93a1.5,1.5,0,0,0,0-3,1.5,1.5,0,0,0,0,3Z"/><path d="M264.38,16.93a1.5,1.5,0,0,0,0-3,1.5,1.5,0,0,0,0,3Z"/><path d="M248.38,14.26a1.5,1.5,0,0,0,0-3,1.5,1.5,0,0,0,0,3Z"/><path d="M279.71,10.93a1.5,1.5,0,0,0,0-3,1.5,1.5,0,0,0,0,3Z"/><path d="M265.71,26.26a1.5,1.5,0,0,0,0-3,1.5,1.5,0,0,0,0,3Z"/><path d="M257,17.6a1.5,1.5,0,0,0,0-3,1.5,1.5,0,0,0,0,3Z"/><path d="M288,30.93a1.5,1.5,0,0,0,0-3,1.5,1.5,0,0,0,0,3Z"/><path d="M245,21.26a1.5,1.5,0,0,0,0-3,1.5,1.5,0,0,0,0,3Z"/><path d="M259.71,10.93a1.5,1.5,0,0,0,0-3,1.5,1.5,0,0,0,0,3Z"/><path d="M252.38,34.26a1.5,1.5,0,0,0,0-3,1.5,1.5,0,0,0,0,3Z"/><path d="M302.38,34.26a1.5,1.5,0,0,0,0-3,1.5,1.5,0,0,0,0,3Z"/><path d="M295.71,17.6a1.5,1.5,0,0,0,0-3,1.5,1.5,0,0,0,0,3Z"/><path d="M244.71,58.93a1.5,1.5,0,0,0,0-3,1.5,1.5,0,0,0,0,3Z"/><path d="M250.38,73.93a1.5,1.5,0,0,0,0-3,1.5,1.5,0,0,0,0,3Z"/><path d="M250.38,89.6a1.5,1.5,0,0,0,0-3,1.5,1.5,0,0,0,0,3Z"/><path d="M253.71,105.6a1.5,1.5,0,0,0,0-3,1.5,1.5,0,0,0,0,3Z"/><path d="M253,114.93a1.5,1.5,0,0,0,0-3,1.5,1.5,0,0,0,0,3Z"/><path d="M271,86.93a1.5,1.5,0,0,0,0-3,1.5,1.5,0,0,0,0,3Z"/><path d="M270,76.93a1.5,1.5,0,0,0,0-3,1.5,1.5,0,0,0,0,3Z"/><path d="M212.53,333.41c.42,4.36,3.65,7.88,8.31,6.63A7.76,7.76,0,0,0,226,329.82a6.86,6.86,0,0,0-8.89-3.67,7.39,7.39,0,0,0-4.59,7.26c0,1.93,3,1.93,3,0,0-3.35,3.2-6.27,6.39-4.1,2.56,1.74,1.86,5.75-.55,7.26-2.84,1.8-5.54-.05-5.84-3.16C215.35,331.5,212.35,331.48,212.53,333.41Z"/><path d="M157.9,480.3c-1.72-13.46-2.83-28.34-7.61-41.12-3.61-9.62-10.86-15.48-19.64-20.22-4.32-2.34-8.79-4.4-13-6.9-4.92-2.89-13.63-8.45-13.67-15,0-7.44,9.74-12,15.55-13.75,6.06-1.87,12.41-2.45,18.53-4.07,7.88-2.09,19.6-7.66,18.2-17.7-.83-5.94-6.5-9.57-7.15-15.85a16.72,16.72,0,0,1,11-17.56c7.11-2.53,14.74-.3,17.22,7.18,1.41,4.22,1.73,9.09,4.75,12.6,6.21,7.17,16.39,2,20.4-4.76,3-5.1,3.87-11.1,6.36-16.42,3.43-7.33,11.27-12.83,18.41-6.22,10.46,9.67,5.39,25.72-4.18,33.58-3.21,2.64-6.73,5.66-6.71,10.22s3.41,6.66,7.4,7.43c5.48,1.06,12.83-1.24,17.3,3s5.48,15.19,4.37,21.09c-1.47,7.77-8.67,10.42-15.69,8.68-6.15-1.51-9.9-6.61-14.75-10.23-5.33-4-16.6-6.25-19.22,2.32-3.68,12,14.44,13.17,20.75,17,3.4,2.06,6.69,6,5.35,10.32-1.6,5.15-7.51,5-11.52,3.59C204,425.32,198.6,421,192,419c-4.56-1.36-11-3.15-15.2.15-3.28,2.59-3.57,7.29-2,10.91,5.81,13.42,25.92,4.11,33.24,15.64,4.22,6.64,2.73,15.19-2.63,20.7-5.55,5.7-12.41,6.41-19.73,8.12-4.76,1.11-9.26,3.27-11,8.16a9.17,9.17,0,0,0-.4,5.48c.41,1.45,4,4.5,3.85,5.5-.24,1.91,2.76,1.9,3,0,.23-1.74-.58-2.22-1.61-3.48-1.84-2.26-3-2.46-2.31-5.52a8.45,8.45,0,0,1,3.56-5.13c5.58-3.8,13.51-2.77,19.58-5.79,8.58-4.27,14.69-13.2,12.83-23-2.18-11.54-11.88-13.84-22-15.06-4-.49-8.84-1.16-11.88-4.21-4.29-4.33-2.61-11.32,4.2-11.11,8.41.25,15.57,5,22.79,8.68s19.43,3.48,18.87-7.44a12.94,12.94,0,0,0-5.84-9.69c-5.55-3.94-14.16-3.32-18.78-8.41s-.07-10,5.44-9.76c3.8.16,6.78,2.52,9.55,4.9,3.85,3.31,7.26,6.88,12.2,8.5,9.64,3.16,19.61-1.32,20.88-11.92,1-8.23-.52-21.81-9.55-25.06-4.66-1.68-18.94,1.42-19.62-5.78-.33-3.48,3.53-6.2,5.83-8.1a30.43,30.43,0,0,0,6.25-6.42c5.42-8,6.22-19.47.92-27.77-5.59-8.75-16.22-10.09-22.93-1.91-3.1,3.78-4.52,8.34-6,12.9-1.13,3.42-2.21,7-4.38,10-3,4-9.36,7.62-13.91,3.74-3.95-3.36-3.75-10-5.71-14.46a13,13,0,0,0-9.41-7.71,20,20,0,0,0-23,12.94,20.48,20.48,0,0,0,.51,14.12c1.07,2.56,2.9,4.49,4.29,6.84,3.22,5.43,0,10.64-4.7,13.79-11.86,7.91-28,4.54-39.48,13.61-3.89,3.09-7.69,8-6.42,13.27,1.17,4.88,5.59,8.94,9.41,11.85,9.67,7.35,22.47,10.35,30.92,19.36,5.74,6.13,7.55,14.37,9.05,22.37,1.71,9.13,3.11,18.32,4.29,27.54.24,1.89,3.24,1.91,3,0Z"/><path d="M114.53,398.54c.43,4.43,3.71,8,8.45,6.75a7.89,7.89,0,0,0,5.25-10.4,7,7,0,0,0-9-3.73,7.51,7.51,0,0,0-4.66,7.38c0,1.93,3,1.94,3,0,0-3.43,3.3-6.44,6.57-4.21,2.64,1.79,1.93,5.91-.55,7.47-2.93,1.85-5.71-.05-6-3.26C117.35,396.64,114.35,396.62,114.53,398.54Z"/><path d="M155.53,342.41c.42,4.36,3.65,7.88,8.31,6.63A7.76,7.76,0,0,0,169,338.82a6.86,6.86,0,0,0-8.89-3.67,7.39,7.39,0,0,0-4.59,7.26c0,1.93,3,1.93,3,0,0-3.35,3.2-6.27,6.39-4.1,2.56,1.74,1.86,5.75-.55,7.26-2.84,1.8-5.54-.05-5.84-3.16C158.35,340.5,155.35,340.48,155.53,342.41Z"/><path d="M225.53,392.41c.42,4.36,3.65,7.88,8.31,6.63A7.76,7.76,0,0,0,239,388.82a6.86,6.86,0,0,0-8.89-3.67,7.39,7.39,0,0,0-4.59,7.26c0,1.93,3,1.93,3,0,0-3.35,3.2-6.27,6.39-4.1,2.56,1.74,1.86,5.75-.55,7.26-2.84,1.8-5.54-.05-5.84-3.16C228.35,390.5,225.35,390.48,225.53,392.41Z"/><path d="M208.38,420.79c.28,2.85,2.44,5.16,5.48,4.34a5,5,0,0,0,3.35-6.52,4.49,4.49,0,0,0-5.78-2.52,4.82,4.82,0,0,0-3.05,4.7c0,1.92,3,1.93,3,0a1.91,1.91,0,0,1,.89-1.8c.38-.28-.22,0,.23-.11a1.59,1.59,0,0,1,1.45.19c2.3,1.72-2.24,5.15-2.57,1.72C211.2,418.88,208.2,418.86,208.38,420.79Z"/><path d="M187.79,455.56c.47,4.9,4.09,8.86,9.32,7.45a8.75,8.75,0,0,0,5.81-11.54,7.71,7.71,0,0,0-10-4.08,8.33,8.33,0,0,0-5.13,8.17c0,1.93,3,1.94,3,0,0-4,3.89-7.54,7.75-4.94,3.11,2.1,2.3,7-.64,8.81-3.45,2.17-6.75-.09-7.11-3.87C190.61,453.66,187.61,453.64,187.79,455.56Z"/><path class="cls-2" d="M112.56,603.12s-29.5,5.16-44.57-4.7A48.75,48.75,0,0,1,46.09,564s22.82,8.85,41.45,11.3C108.09,578,112.56,603.12,112.56,603.12Z"/><path class="cls-2" d="M89.21,550.72s-4-5.47-3.24-15.64S104,503,104,503s-.84,16.46,6.26,27.38c20.33,31.28,11.73,57.87,2.34,72.73,0,0,2-16.69-3.12-28.94-3.91-9.38-14.08-25-38.32-28.93C57.2,543,52.35,535.08,52.35,535.08S57,561.28,73.09,572"/><path class="cls-2" d="M118.19,544.46a48.83,48.83,0,0,1,11.36-21.11c9.39-10.17,33.85-9.39,33.85-9.39s-15.64,14.08-18.77,52.4c-1.85,22.6-32.07,36.76-32.07,36.76s34.53-7.11,45.23-25c6.48-10.85,33.76-22,33.76-22a55.94,55.94,0,0,0-25-9.85c-10.71-1.31-19.34,6-19.34,6"/><path class="cls-2" d="M112.56,603.12s9.67,1.9,27,1.09c25.51-1.2,34.51-10.2,52.51-17.2,0,0-16-14-34-9"/><path d="M69.19,58.17c-3.58.27-8.59,2.08-7.87,6.6.48,3,3.42,3.93,6,4.52,9.43,2.14,21.2,2,30.73.5,3.93-.61,8.76-2.63,8.67-7.38C106.65,57.93,102.05,55,98,55c-4.75,0-7.92,3.46-12.47,3.39-5.44-.09-10.88-.17-16.32-.2a1.5,1.5,0,0,0,0,3c5.72,0,11.45.12,17.17.21a7.1,7.1,0,0,0,4.26-1c2.78-1.28,5.82-3.25,9.1-2.27,6.08,1.81,3.07,7.27-1.16,8.52-5.57,1.64-13,.84-18.79.72a75.06,75.06,0,0,1-9.71-.66A11.67,11.67,0,0,1,66.48,66c-3.38-1.89-.57-4.56,2.71-4.81C71.1,61,71.12,58,69.19,58.17Z"/><path d="M78.56,44.06c6.3-.86,8.55,1.9,13.55,4.55,5.27,2.8,13.13.27,17.33,4.78,6.19,6.65-1.85,17.75-9,19.34-6,1.33-12.84,1.19-18.94,1.31s-12.48,0-18.4-1.68c-2.23-.66-5.39-1.5-6.32-3.87-1-2.55.32-8,1-10.44,2.95-10,12.13-11.39,20.79-14,1.84-.55,1.06-3.45-.8-2.89-7.65,2.3-16.41,3.6-20.79,11.09-2.54,4.35-4.79,12.7-3.15,17.66,1.15,3.49,7,5,10.18,5.78,6.15,1.44,12.63,1.49,18.91,1.3,6-.18,13.11.08,18.94-1.56,9.43-2.65,18-17.41,8.78-25C105.3,46,97.79,48.77,92.1,45.09c-5-3.22-8.18-4.76-14.34-3.92C75.86,41.43,76.67,44.32,78.56,44.06Z"/><path d="M42.33,61.16c-.35,6.83,2,13.89,7.32,18.4C56.1,85,65,84.87,73,83.88a92.59,92.59,0,0,0,47.16-20.36c4-3.27,12.65-9.17,9.68-15.38-1.25-2.62-4.09-4.13-6.61-5.24a151.82,151.82,0,0,0-14.66-5.34c-15.39-4.93-36.38-9.83-51.73-2.21-10.07,5-13.54,15.32-14.46,25.81-.16,1.92,2.84,1.91,3,0,.9-10.21,4.5-20,14.79-24,8.63-3.41,19.12-2.7,28.11-1.37a139.47,139.47,0,0,1,28.42,7.79,42.84,42.84,0,0,1,7.43,3.1c4.4,2.69,2.73,6.44-.11,9.32a80.37,80.37,0,0,1-10.81,9.1A89.75,89.75,0,0,1,89.07,77.23c-8.41,2.74-17.91,4.91-26.8,4.08-10.84-1-17.5-9.47-16.94-20.15C45.43,59.23,42.43,59.23,42.33,61.16Z"/><path d="M48.76,25.17C41.55,28,38,36.58,35.43,43.32a87,87,0,0,0-5.92,27.13C29.12,80.31,32.57,90,42.23,94.11c9.11,3.86,19.61,1.83,28.35-2,6.23-2.74,12-6.33,18.18-9.25,6.74-3.19,13.47-4.72,20.8-5.83,11.51-1.73,22.24-4.22,29.53-14,6-8.06,8.57-19.47,5-29.07-3.79-10.11-13.72-9.93-22.9-10.27-13.06-.48-26-2.59-39-3.2-11.32-.52-23.37-.3-33.72,4.88-1.72.87-.2,3.46,1.52,2.59,16.29-8.17,37.31-4.3,54.67-2.57,4.21.41,8.43.83,12.65,1.1,4.76.3,9.76-.15,14.45.77,12.81,2.51,12.64,18.66,8.35,28.25-4.48,10-13.21,15.36-23.7,17.43s-20.2,3-29.85,7.75C77.32,85.1,68.54,91.22,58.26,92.76c-10.81,1.63-22.34-2.13-25.11-13.83-2.13-9,.28-19.34,2.9-28.09,2.16-7.22,5.67-19.68,13.51-22.78C51.34,27.36,50.56,24.46,48.76,25.17Z"/><path d="M389.57,508.23c-1.52,3.55-4.06,8.26-4.31,12.14-.28,4.41,6.26,8.62,9,11.4l.66-2.51-12.24,4a1.53,1.53,0,0,0-.9,2.21,113.69,113.69,0,0,1,7.54,12.83l1.29-2.26-9.68.24a1.51,1.51,0,0,0-1.29,2.25l7,12.34.9-2.21c-4.12.67-8.27.85-12.28,2.07a1.54,1.54,0,0,0-.9,2.21c2.45,5.79,6.45,10.36,10.44,15.13a1.51,1.51,0,0,0,2.51-.66c1-5.16,2.14-10.27,2.78-15.49L387.53,563a161.7,161.7,0,0,0,14.85,12.17,1.5,1.5,0,0,0,2.2-.89,61.33,61.33,0,0,0,.43-15,1.53,1.53,0,0,0-1.5-1.5L388,559l1.45,1.89c1.87-9.42,3-19.4,7.11-28.18,3.77-8,7.41-16.36,11.49-24.23l-2.05.54c4.54,2.44,8.94,5.13,13.48,7.57l.76-2.79a98.2,98.2,0,0,0-19.57,3.83,1.52,1.52,0,0,0-.36,2.74l8.49,5.27c.42.27,3.37,2.65,3.89,1-.1.31-2.09.68-2.43.77a66.65,66.65,0,0,1-15.49,2.94,1.52,1.52,0,0,0-1.06,2.56A121.3,121.3,0,0,0,405,543.68l.66-2.51-15,4.56a1.51,1.51,0,0,0-.66,2.5q5.94,5.89,11.85,11.81a1.51,1.51,0,0,0,2.51-.66c1.11-5.28,2.49-10.52,3.23-15.87l-2.21.9c4.76,3.44,9.19,7.32,14.52,9.87l.76-2.79a47.19,47.19,0,0,0-18.4,5.94,1.51,1.51,0,0,0-.31,2.35c2.82,2.48,5.71,4.86,8.73,7.09,1.6,1.17,4.41,4.23,6.72,3.67,1.62-.39,1.85-1.9,2.17-3.28,1-4.43,1.64-9,2.45-13.48l-2.2.9a128.17,128.17,0,0,0,14.33,8.6,1.53,1.53,0,0,0,1.82-.24c1.27-1.32,1.39-4.18,1.71-5.87.56-2.9,1.25-6.08,1-9a1.53,1.53,0,0,0-1.9-1.45,65.85,65.85,0,0,0-8.21,2.51c-1.8.64-5.64,1.2-7.07,2.45,1,1.45,1.51,1.49,1.51.11.16-.73.33-1.46.49-2.18.37-1.68.75-3.37,1.13-5q1-4.49,2-9a1.52,1.52,0,0,0-1.85-1.84c-6.39,2.18-12.61,4.82-19,7l1.69,2.2a128.59,128.59,0,0,1,7.78-14.13l-2.06.54c3.88,2.34,7.74,4.7,11.52,7.2a1.52,1.52,0,0,0,2.05-.54c2.14-3.57,3.88-7.34,5.71-11.07a1.5,1.5,0,0,0-1.29-2.25c-5.88.43-11.48,2.11-17.08,3.86l1.84,1.85,2.39-7.3,1.19-3.65a11.41,11.41,0,0,0,1.65,1.12c3.37,1.5,6.16,4.84,9.25,6.91,1.61,1.08,3.11-1.52,1.52-2.59-2.86-1.92-9.4-9.35-13.39-8.31-1,.27-1.34.94-1.8,1.78-1.76,3.23-2.56,7.75-3.7,11.24a1.52,1.52,0,0,0,1.85,1.85c5.33-1.67,10.68-3.35,16.28-3.76l-1.3-2.26c-1.84,3.73-3.57,7.49-5.71,11.06l2.05-.53c-3.77-2.5-7.64-4.86-11.51-7.2a1.52,1.52,0,0,0-2.05.54,127.68,127.68,0,0,0-7.78,14.13c-.47,1.08.33,2.67,1.7,2.2,6.39-2.17,12.61-4.81,19-7l-1.85-1.84c-.93,4.28-1.9,8.56-2.86,12.84-.34,1.53-2.17,5.55-.53,6.8,1.42,1.09,4.47-.66,5.81-1.13a90,90,0,0,1,11.43-3.67l-1.9-1.44c.26,2.68-.59,11.54-1.79,12.8l1.82-.23a128.31,128.31,0,0,1-14.34-8.6,1.51,1.51,0,0,0-2.2.9l-1.31,7.18c-.17.92-.77,7-1.24,7.21s-5-3.57-5.67-4.08c-2.35-1.79-4.61-3.68-6.83-5.64l-.31,2.36a43.31,43.31,0,0,1,16.89-5.53c1.31-.15,2.25-2.08.76-2.8-5.33-2.55-9.77-6.43-14.52-9.87a1.51,1.51,0,0,0-2.21.9c-.74,5.35-2.11,10.59-3.22,15.86l2.5-.66Q398,552,392.07,546.11l-.66,2.51,15-4.56a1.52,1.52,0,0,0,.66-2.51,119.89,119.89,0,0,1-11.23-10.74l-1.06,2.56a67.45,67.45,0,0,0,12.76-2.11c2-.49,5.85-.85,7.38-2.5a1.47,1.47,0,0,0,.38-1.45c-.78-2-2.59-2.73-4.37-3.84l-9.09-5.65-.36,2.74a94.54,94.54,0,0,1,18.77-3.72c1.39-.1,2.15-2.05.76-2.8-4.55-2.44-8.94-5.13-13.48-7.57a1.53,1.53,0,0,0-2.06.54c-2.16,4.16-3.82,8.53-5.73,12.81s-4.51,8.52-6.46,12.94c-3.77,8.59-4.9,18.24-6.72,27.38A1.53,1.53,0,0,0,388,562l15.49-1.26-1.5-1.5a58.27,58.27,0,0,1-.32,14.15l2.2-.9a154.72,154.72,0,0,1-14.24-11.7,1.52,1.52,0,0,0-2.56,1.06c-.61,5-1.76,9.8-2.67,14.69l2.5-.66c-3.84-4.58-7.62-9-10-14.53l-.89,2.21c4-1.22,8.17-1.41,12.27-2.07a1.52,1.52,0,0,0,.9-2.21l-7-12.33-1.3,2.26,9.68-.24a1.52,1.52,0,0,0,1.3-2.26,116.05,116.05,0,0,0-7.53-12.83l-.9,2.21,12.24-4a1.52,1.52,0,0,0,.66-2.51c-2.49-2.5-8.49-6.43-7.79-10.1.63-3.29,2.23-6.75,3.54-9.81.75-1.75-1.84-3.28-2.59-1.51Z"/><path d="M390.57,509.74c2.44,4.23,5.3,8.48,9.65,10.91l.36-2.74A96.9,96.9,0,0,0,387.23,521c-1.84.57-1.05,3.47.8,2.89a96.9,96.9,0,0,1,13.35-3.13c1.3-.21,1.41-2.15.35-2.74-3.91-2.19-6.39-6-8.57-9.83a1.5,1.5,0,0,0-2.59,1.51Z"/><path d="M424.66,537a115.79,115.79,0,0,1,12,12.51,1.51,1.51,0,0,0,2.51-.66,81.33,81.33,0,0,1,4.33-15.75,1.5,1.5,0,0,0-1.45-1.89c-5.86.39-11.46,2.21-17.16,3.49-1.89.42-1.09,3.32.79,2.89,5.43-1.22,10.79-3,16.37-3.38l-1.45-1.9a82.48,82.48,0,0,0-4.33,15.74l2.51-.66a113.91,113.91,0,0,0-12.05-12.51c-1.44-1.28-3.57.83-2.12,2.12Z"/><path d="M430.28,525.61c8.41,5.76,15.71,12.95,24.05,18.8l.36-2.74c-5.62,2.23-11.65,3-17.27,5.19a1.52,1.52,0,0,0-.36,2.74c3.43,1.95,7.1,3.72,10.38,5.9,1.29.86,2.46,2.29,3.89,2.91a1.55,1.55,0,0,0,2.05-.54c.82-1.19.72-2.81,1-4.18.53-2.82,1.49-5.55,2.25-8.32a116.4,116.4,0,0,0,3-16.25,1.5,1.5,0,0,0-1.5-1.5c-5.91,0-11.32.52-16.85,2.72l1.84,1.84A43.22,43.22,0,0,1,447.3,519c.52-1-.38-2.72-1.7-2.2l-14.76,5.85,1.84,1.85a62.63,62.63,0,0,0,1.48-13.58,1.52,1.52,0,0,0-2.26-1.29,63.66,63.66,0,0,1-12,3.83l1.85,1.05a38.56,38.56,0,0,1-1.13-9.2l-1.9,1.45c15.16,4.81,27.95,10.94,38.3,23.36,1.75,2.1,3.56,4.14,5.4,6.16.73.8,3,3.91,2.43,2.17,1.17,3.74.34,9.63.07,13.45-.14,1.93,2.86,1.92,3,0a93.63,93.63,0,0,0,.09-9.77c0-1.24.21-3-.22-4.2s-1.73-2.12-2.47-2.92c-2.11-2.3-4.19-4.62-6.18-7-10.69-12.83-24-19.17-39.63-24.13a1.5,1.5,0,0,0-1.89,1.44,41.13,41.13,0,0,0,1.24,10,1.53,1.53,0,0,0,1.84,1.05,68.4,68.4,0,0,0,12.71-4.14l-2.26-1.3a59,59,0,0,1-1.37,12.78c-.22,1,.7,2.3,1.84,1.85l14.77-5.86-1.69-2.2a46.15,46.15,0,0,0-4.52,13.93c-.15,1,.66,2.31,1.85,1.84,5.27-2.1,10.41-2.59,16-2.61l-1.5-1.5a109.46,109.46,0,0,1-2.88,15.45c-.66,2.45-1.57,4.88-2.1,7.35-.28,1.29-.06,3.33-.82,4.44l2.06-.54c-1.38-.6-2.62-2.08-3.9-2.92-3.31-2.15-6.94-3.94-10.37-5.89l-.36,2.74c5.62-2.23,11.65-3,17.27-5.19a1.53,1.53,0,0,0,.36-2.74c-8.35-5.85-15.64-13-24.05-18.8-1.6-1.1-3.1,1.5-1.52,2.59Z"/><path d="M467.62,549.69c-2.09-1.37-4.3-2.45-6.28-4-.91-.7-1.8-1.43-2.67-2.18-.29-.24-.55-.52-.85-.75s-.63-1-.28,0l-.39,1.46c-.26.22,1-.37,1.23-.46l2.81-1.13c1.83-.73,3.66-1.46,5.43-2.31s.22-3.43-1.52-2.59c-2.06,1-4.2,1.81-6.33,2.66a13.49,13.49,0,0,0-3.74,1.7,1.47,1.47,0,0,0-.39,1.46c.65,1.71,3,3.07,4.35,4.13,2.26,1.79,4.72,3.07,7.11,4.64,1.63,1.06,3.13-1.54,1.52-2.59Z"/><path d="M466.1,550.69a33.22,33.22,0,0,1-9.55,4.23c-3.39.81-6.91.62-10.32,1.32-7.2,1.47-13.79,6.06-20.58,8.71-6.62,2.58-13.44,4.86-20.26,6.85s-13.77.73-20.37,3a1.52,1.52,0,0,0-.66,2.51,135,135,0,0,0,14,11.72,1.49,1.49,0,0,0,2-.54,44.57,44.57,0,0,0,3.83-14.34l-2.56,1.06a85.77,85.77,0,0,0,11.19,9.84,1.51,1.51,0,0,0,2.2-.9c1.53-4.88,2.66-9.87,4.48-14.67l-2.75.36c3,4,6.95,6.94,10.43,10.46a1.52,1.52,0,0,0,2.36-.31c3.08-5.53,4.5-11.75,7.58-17.28l-2.36.3c3.5,4.24,7.65,7.8,11.43,11.78a1.51,1.51,0,0,0,2.12,0c4-5,4.8-11.21,6.19-17.31l-2.51.67c3.56,4,6.79,8.27,10.77,11.86a1.52,1.52,0,0,0,2.51-.66c2.07-5.53,2.54-11.55,3.05-17.4.17-1.92-2.83-1.91-3,0-.49,5.6-1,11.3-2.94,16.6l2.5-.66c-4-3.59-7.2-7.87-10.77-11.87a1.52,1.52,0,0,0-2.51.67c-1.23,5.43-1.81,11.49-5.41,16h2.12c-3.77-4-7.93-7.54-11.43-11.78a1.5,1.5,0,0,0-2.35.31c-3.08,5.53-4.5,11.75-7.58,17.28l2.35-.3c-3.28-3.32-7.12-6.11-10-9.85a1.52,1.52,0,0,0-2.74.36c-1.81,4.79-2.95,9.78-4.47,14.67l2.2-.9a81.22,81.22,0,0,1-10.58-9.37,1.52,1.52,0,0,0-2.56,1.06A40.06,40.06,0,0,1,397.81,587l2.05-.54a130.57,130.57,0,0,1-13.38-11.25l-.66,2.51c6.78-2.37,14.17-1.18,21.09-3.25,7.15-2.15,14.3-4.5,21.23-7.31,7.31-3,14.09-7.61,22.06-8.44,6.51-.67,11.76-2,17.42-5.45a1.5,1.5,0,0,0-1.52-2.59Z"/><path d="M413.48,599c0-4.83,1.55-9.48,2-14.27L413.23,586c5,2.57,9.5,6,14.72,8.23a1.5,1.5,0,0,0,1.9-1.45c-.36-4.28.3-8.52.51-12.8l-2.26,1.3c4.93,3.12,10,6.07,15,9a1.53,1.53,0,0,0,2.21-.9,132,132,0,0,0,3.7-14.62l-2.5.66c4.34,3.63,7.95,8,12.29,11.62a1.52,1.52,0,0,0,2.51-.66c1.26-5.68,2.63-11.34,4-17a1.52,1.52,0,0,0-1.85-1.84c-21.7,6.15-43.43,12.42-65,19a1.52,1.52,0,0,0-.36,2.74A141.73,141.73,0,0,1,410.92,600c1.4,1.33,3.52-.78,2.12-2.12a150,150,0,0,0-13.42-11.23l-.36,2.74c21.57-6.58,43.29-12.84,65-19l-1.84-1.85c-1.37,5.66-2.74,11.32-4,17l2.5-.66c-4.34-3.63-7.95-8-12.29-11.62-.77-.65-2.3-.55-2.51.66a133.69,133.69,0,0,1-3.7,14.62l2.2-.89c-5-2.93-10.08-5.88-15-9a1.52,1.52,0,0,0-2.26,1.29c-.21,4.28-.87,8.52-.51,12.8l1.9-1.44c-5-2.1-9.21-5.48-14-7.93a1.53,1.53,0,0,0-2.26,1.3c-.46,4.8-2,9.41-2,14.27A1.5,1.5,0,0,0,413.48,599Z"/><path d="M413.6,601.19c6.15-3.7,14-4.57,20.58-7.46,8.23-3.58,16.81-5.22,25.68-6.25l-1.29-2.25c-1.74,4-4.23,7.5-6.4,11.23l2.36-.3c-3.15-2.7-5.77-5.9-9.18-8.28a1.5,1.5,0,0,0-2.2.9c-.92,4-2.08,7.87-2.44,11.94l1.9-1.44a49.43,49.43,0,0,1-12.87-6.34,1.52,1.52,0,0,0-2.2.9l-5.34,12.78,2.21-.9c-3.76-2.78-8-4.6-11.49-7.8-1.42-1.3-3.54.81-2.12,2.12,3.66,3.38,8.13,5.33,12.09,8.27.87.65,1.88-.1,2.21-.89l5.33-12.79-2.2.9a51.88,51.88,0,0,0,13.58,6.64,1.52,1.52,0,0,0,1.9-1.45c.34-3.8,1.48-7.44,2.33-11.15l-2.2.9c3.19,2.23,5.62,5.28,8.57,7.81a1.52,1.52,0,0,0,2.35-.3c2.17-3.73,4.66-7.28,6.4-11.24.4-.91,0-2.4-1.3-2.26-8.39,1-16.72,2.34-24.59,5.54a99.39,99.39,0,0,1-12.51,4.65c-3.76,1-7.32,1.91-10.67,3.93a1.5,1.5,0,0,0,1.51,2.59Z"/><path d="M424.26,608.43c9.61-3.2,19.24-6.29,29-9a1.5,1.5,0,0,0-.8-2.89c-9.75,2.7-19.39,5.8-29,9-1.82.6-1,3.5.8,2.89Z"/><path d="M376.91,562.74c.87-2.77,1.61-5.59,2.4-8.39.58-2.07,1-4.6,2.07-6.48a1.5,1.5,0,0,0-2.59-1.51c-1.12,1.91-1.57,4.34-2.17,6.45-.86,3.05-1.65,6.11-2.6,9.13-.58,1.85,2.31,2.64,2.89.8Z"/><path d="M385.42,519.58c-1.89,9.08-4.88,17.85-6.89,26.89-.41,1.89,2.48,2.69,2.9.8,2-9,5-17.81,6.88-26.89.39-1.88-2.5-2.69-2.89-.8Z"/><path d="M390.84,510.32a152.88,152.88,0,0,0,28.65-3.76c1.88-.44,1.08-3.33-.8-2.89a148.49,148.49,0,0,1-27.85,3.65c-1.93.07-1.94,3.07,0,3Z"/><path d="M359.88,225.87a1.5,1.5,0,0,0,0-3,1.5,1.5,0,0,0,0,3Z"/><path d="M338.88,234.87a1.5,1.5,0,0,0,0-3,1.5,1.5,0,0,0,0,3Z"/><path d="M362.88,255.86a1.5,1.5,0,0,0,0-3,1.5,1.5,0,0,0,0,3Z"/><path d="M364.38,300.86a1.5,1.5,0,0,0,0-3,1.5,1.5,0,0,0,0,3Z"/><path d="M292.38,254.36a1.5,1.5,0,0,0,0-3,1.5,1.5,0,0,0,0,3Z"/><path d="M268.38,357.86a1.5,1.5,0,0,0,0-3,1.5,1.5,0,0,0,0,3Z"/><path d="M164.89,315.86a1.5,1.5,0,0,0,0-3,1.5,1.5,0,0,0,0,3Z"/><path d="M35.9,300.86a1.5,1.5,0,0,0,0-3,1.5,1.5,0,0,0,0,3Z"/><path d="M52.4,216.87a1.5,1.5,0,0,0,0-3,1.5,1.5,0,0,0,0,3Z"/><path d="M41.9,224.37a1.5,1.5,0,0,0,0-3,1.5,1.5,0,0,0,0,3Z"/><path d="M89.89,120.87a1.5,1.5,0,0,0,0-3,1.5,1.5,0,0,0,0,3Z"/><path d="M157.39,92.37a1.5,1.5,0,0,0,0-3,1.5,1.5,0,0,0,0,3Z"/><path d="M163.39,63.87a1.5,1.5,0,0,0,0-3,1.5,1.5,0,0,0,0,3Z"/><path d="M216.39,467.35a1.5,1.5,0,0,0,0-3,1.5,1.5,0,0,0,0,3Z"/><path d="M211.39,510.85a1.5,1.5,0,0,0,0-3,1.5,1.5,0,0,0,0,3Z"/><path d="M80.89,485.35a1.5,1.5,0,0,0,0-3,1.5,1.5,0,0,0,0,3Z"/><path d="M199.39,177.87a1.5,1.5,0,0,0,0-3,1.5,1.5,0,0,0,0,3Z"/><path d="M295.38,123.87a1.5,1.5,0,0,0,0-3,1.5,1.5,0,0,0,0,3Z"/><path d="M340.38,477.85a1.5,1.5,0,0,0,0-3,1.5,1.5,0,0,0,0,3Z"/><path d="M338.88,567.85a1.5,1.5,0,0,0,0-3,1.5,1.5,0,0,0,0,3Z"/><path d="M302.88,596.35a1.5,1.5,0,0,0,0-3,1.5,1.5,0,0,0,0,3Z"/><path d="M212.89,584.35a1.5,1.5,0,0,0,0-3,1.5,1.5,0,0,0,0,3Z"/><path d="M46.4,513.85a1.5,1.5,0,0,0,0-3,1.5,1.5,0,0,0,0,3Z"/><path d="M29.9,410.36a1.5,1.5,0,0,0,0-3,1.5,1.5,0,0,0,0,3Z"/><path d="M19.4,113.37a1.5,1.5,0,0,0,0-3,1.5,1.5,0,0,0,0,3Z"/><path d="M353.88,74.37a1.5,1.5,0,0,0,0-3,1.5,1.5,0,0,0,0,3Z"/><path d="M433.38,479.35a1.5,1.5,0,0,0,0-3,1.5,1.5,0,0,0,0,3Z"/><path d="M14.9,32.88a1.5,1.5,0,0,0,0-3,1.5,1.5,0,0,0,0,3Z"/><path d="M436.38,53.88a1.5,1.5,0,0,0,0-3,1.5,1.5,0,0,0,0,3Z"/><path d="M434.88,241.37a1.5,1.5,0,0,0,0-3,1.5,1.5,0,0,0,0,3Z"/><path d="M480.38,585.85a1.5,1.5,0,0,0,0-3,1.5,1.5,0,0,0,0,3Z"/><path d="M8.9,574.35a1.5,1.5,0,0,0,0-3,1.5,1.5,0,0,0,0,3Z"/><path d="M377.16,379.28a3.06,3.06,0,0,0-4.41,1.88c-.41,1.26.2,2.13.39,3.33.46,2.95.48,4.28-3.2,4.2a11.36,11.36,0,0,0-1.65-.14c-5.3.58-4.6,7.74-2,10.63,1.28,1.45,3.4-.68,2.12-2.12-1-1.11-1.88-3.14-.8-4.53.91-1.17,1.59-.74,3-.71a5.46,5.46,0,0,0,6.19-4.83,5.72,5.72,0,0,0-.22-2c-.14-.55-.84-3.11-.9-3.14,1.74.81,3.26-1.78,1.51-2.59Z"/><path d="M89.33,465.28c1.33-.69,4.19-3.24,5.1-.7.35,1-.34,2.34-.33,3.36a4.55,4.55,0,0,0,2.58,4.42c3.45,1.4,8.52-1.79,10.68-4.34l-2.5-.66,1.24,3.33c.67,1.79,3.57,1,2.9-.8l-1.25-3.33a1.52,1.52,0,0,0-2.51-.66,11.4,11.4,0,0,1-5.5,3.51c-3.81.87-2.15-2.92-2.31-5.23-.45-6.45-6.19-3.26-9.61-1.49-1.72.89-.2,3.48,1.51,2.59Z"/><path d="M21.77,221.6c-2.94,2-3.08,6.93.41,8.54.92.42,2.74.13,3,1.47.15.85-1.46,2.75-1.74,3.65-.62,2-.29,3.69,1.44,4.88s3.09-1.5,1.51-2.59c-1-.69,1.28-3.89,1.55-4.75a4.37,4.37,0,0,0,0-3.26A3.2,3.2,0,0,0,26.37,228c-1.11-.57-6.34-1.61-3.09-3.81,1.59-1.08.09-3.68-1.51-2.59Z"/><path d="M135.61,501.76a1.5,1.5,0,0,0,0-3,1.5,1.5,0,0,0,0,3Z"/><path d="M131.61,487.76a1.5,1.5,0,0,0,0-3,1.5,1.5,0,0,0,0,3Z"/><path d="M165.61,474.43a1.5,1.5,0,0,0,0-3,1.5,1.5,0,0,0,0,3Z"/><path d="M169,490.43a1.5,1.5,0,0,0,0-3,1.5,1.5,0,0,0,0,3Z"/><path d="M196.28,489.1a1.5,1.5,0,0,0,0-3,1.5,1.5,0,0,0,0,3Z"/><path d="M112.28,457.1a1.5,1.5,0,0,0,0-3,1.5,1.5,0,0,0,0,3Z"/><path d="M169.61,481.76a1.5,1.5,0,0,0,0-3,1.5,1.5,0,0,0,0,3Z"/><path d="M179,471.76a1.5,1.5,0,0,0,0-3,1.5,1.5,0,0,0,0,3Z"/><path d="M160.28,451.1a1.5,1.5,0,0,0,0-3,1.5,1.5,0,0,0,0,3Z"/><path d="M185.61,531.1a1.5,1.5,0,0,0,0-3,1.5,1.5,0,0,0,0,3Z"/><path d="M247,579.76a1.5,1.5,0,0,0,0-3,1.5,1.5,0,0,0,0,3Z"/><path d="M430.38,397.36a1.5,1.5,0,0,0,0-3,1.5,1.5,0,0,0,0,3Z"/><path d="M446.88,355.36a1.5,1.5,0,0,0,0-3,1.5,1.5,0,0,0,0,3Z"/><path d="M199.39,44.88a1.5,1.5,0,0,0,0-3,1.5,1.5,0,0,0,0,3Z"/><path d="M371.38,17.88a1.5,1.5,0,0,0,0-3,1.5,1.5,0,0,0,0,3Z"/><path d="M116.89,15.38a1.5,1.5,0,0,0,0-3,1.5,1.5,0,0,0,0,3Z"/><path d="M44.4,596.85a1.5,1.5,0,0,0,0-3,1.5,1.5,0,0,0,0,3Z"/></g></g></svg>